<?xml version="1.0" standalone="no"?>
<!DOCTYPE svg PUBLIC "-//W3C//DTD SVG 20010904//EN"
 "http://www.w3.org/TR/2001/REC-SVG-20010904/DTD/svg10.dtd">
<svg version="1.0" xmlns="http://www.w3.org/2000/svg"
 width="512.000000pt" height="512.000000pt" viewBox="0 0 512.000000 512.000000"
 preserveAspectRatio="xMidYMid meet">
<metadata>
Created by potrace 1.14, written by Peter Selinger 2001-2017
</metadata>
<g transform="translate(0.000000,512.000000) scale(0.100000,-0.100000)"
fill="#000000" stroke="none">
<path d="M634 5101 c-56 -25 -81 -48 -112 -101 l-27 -45 0 -1555 0 -1555 22
-40 c30 -57 74 -95 130 -114 42 -14 114 -16 566 -16 284 0 517 -1 517 -3 0 -2
-25 -27 -56 -55 l-57 -52 -121 -1 c-66 -1 -124 -2 -128 -3 -19 -3 -41 -57 -43
-104 -2 -29 -3 -55 -4 -59 -1 -3 -247 -6 -547 -6 -530 1 -546 0 -572 -19 l-27
-20 -3 -181 c-3 -158 -1 -184 14 -208 10 -14 27 -29 38 -34 19 -6 21 -16 22
-82 0 -73 0 -75 -28 -86 -16 -6 -32 -22 -38 -38 -7 -18 -10 -144 -8 -355 3
-300 5 -330 21 -346 17 -17 126 -18 2367 -18 2242 0 2350 1 2367 18 17 17 18
57 18 672 0 654 0 654 -21 676 -21 21 -24 21 -591 21 l-570 1 1 46 c2 60 -11
99 -38 113 -12 7 -67 12 -130 13 l-108 1 -53 44 c-30 25 -56 50 -58 55 -3 7
175 10 522 11 510 0 527 1 572 21 25 11 60 36 77 54 63 66 62 54 62 899 0 831
2 799 -53 819 -20 8 -22 16 -22 104 -1 92 0 96 22 102 55 13 54 0 51 667 l-3
615 -30 49 c-19 30 -49 60 -79 79 l-49 30 -1886 2 c-1822 2 -1887 2 -1927 -16z"/>
</g>
</svg>
