<?xml version="1.0" standalone="no"?>
<!DOCTYPE svg PUBLIC "-//W3C//DTD SVG 20010904//EN"
 "http://www.w3.org/TR/2001/REC-SVG-20010904/DTD/svg10.dtd">
<svg version="1.0" xmlns="http://www.w3.org/2000/svg"
 width="512.000000pt" height="512.000000pt" viewBox="0 0 512.000000 512.000000"
 preserveAspectRatio="xMidYMid meet">
<metadata>
Created by potrace 1.14, written by Peter Selinger 2001-2017
</metadata>
<g transform="translate(0.000000,512.000000) scale(0.100000,-0.100000)"
fill="#000000" stroke="none">
<path d="M625 5096 c-60 -28 -87 -56 -114 -116 -20 -45 -21 -57 -21 -1576 0
-1691 -4 -1582 63 -1652 18 -19 50 -43 72 -55 39 -22 49 -22 571 -25 l532 -3
-52 -49 -51 -48 -127 -4 c-158 -4 -170 -11 -176 -113 l-4 -65 -553 0 -554 0
-20 -26 c-19 -25 -21 -40 -21 -205 0 -170 1 -179 23 -203 32 -36 74 -39 107
-6 18 18 20 33 20 155 l0 135 560 0 560 0 0 -545 0 -545 -560 0 -560 0 0 288
0 289 -23 21 c-31 29 -72 28 -102 -3 l-25 -24 0 -336 0 -336 25 -24 24 -25
2341 0 2341 0 24 25 25 24 0 644 c0 636 0 645 -21 671 l-20 26 -572 2 -572 3
-5 67 c-7 97 -13 101 -165 108 l-124 5 -46 45 -46 45 528 5 c517 5 529 5 568
27 22 12 54 36 72 55 66 68 63 27 63 891 l0 784 -23 21 c-31 29 -77 29 -105
-1 l-22 -23 -2 -778 -3 -778 -24 -19 c-23 -19 -67 -19 -1882 -19 -1828 0
-1859 0 -1878 19 -11 11 -23 35 -26 53 -3 18 -4 705 -3 1526 l3 1494 28 24 28
24 1850 0 1851 0 29 -29 29 -29 0 -599 0 -600 23 -21 c33 -31 80 -29 106 4 21
26 21 35 21 633 0 588 -1 607 -21 651 -27 60 -54 88 -114 116 l-50 24 -1875 0
-1875 0 -50 -24z m2573 -3476 l53 -50 -701 0 -701 0 53 50 53 49 595 0 595 0
53 -49z m412 -220 c0 -7 -362 -10 -1065 -10 -703 0 -1065 3 -1065 10 0 7 362
10 1065 10 703 0 1065 -3 1065 -10z m1190 -455 l0 -295 -1317 0 c-1415 -1
-1341 2 -1362 -51 -11 -30 8 -83 34 -93 9 -3 608 -6 1331 -6 l1314 0 0 -175 0
-175 -1605 0 -1605 0 0 175 0 175 159 0 c88 0 167 3 176 6 26 10 45 63 34 93
-18 47 -33 50 -206 51 l-163 0 0 295 0 295 1605 0 1605 0 0 -295z"/>
<path d="M2715 1125 c-18 -18 -25 -35 -25 -65 l0 -40 -110 0 c-104 0 -112 -1
-135 -25 -14 -13 -25 -36 -25 -50 0 -14 11 -37 25 -50 23 -24 31 -25 135 -25
l110 0 0 -40 c0 -30 7 -47 25 -65 l24 -25 945 0 945 0 28 24 c28 24 28 26 31
152 4 149 -1 187 -30 214 -21 20 -36 20 -970 20 l-949 0 -24 -25z"/>
<path d="M4245 395 c-32 -31 -33 -74 -2 -103 22 -20 33 -22 163 -22 134 0 142
1 162 23 31 33 29 80 -4 106 -24 19 -40 21 -161 21 -129 0 -135 -1 -158 -25z"/>
<path d="M890 4757 c-52 -26 -50 25 -47 -1269 l2 -1207 23 -23 23 -23 1659 0
1659 0 23 23 23 23 0 1219 0 1219 -23 23 -23 23 -1647 2 c-1308 2 -1652 0
-1672 -10z m3208 -291 l-3 -144 -1100 -966 -1100 -966 -447 0 -448 0 0 254 0
253 988 856 987 856 563 0 563 1 -3 -144z"/>
<path d="M3792 2067 c-29 -31 -29 -77 1 -105 22 -21 32 -22 203 -22 193 1 204
3 224 54 11 31 -7 79 -35 90 -9 3 -96 6 -194 6 -173 0 -178 -1 -199 -23z"/>
<path d="M465 1145 c-25 -24 -25 -27 -25 -198 0 -160 2 -175 20 -195 31 -33
67 -38 98 -15 l27 20 3 186 2 185 -26 21 c-35 28 -69 27 -99 -4z"/>
<path d="M642 1150 c-29 -28 -34 -64 -30 -234 l3 -148 28 -24 c35 -30 59 -30
94 0 l28 24 3 158 c2 86 1 167 -2 180 -15 58 -83 82 -124 44z"/>
<path d="M816 1149 l-26 -20 0 -180 c0 -178 0 -180 25 -204 13 -14 36 -25 50
-25 14 0 37 11 50 25 25 24 25 27 25 200 0 173 0 176 -25 200 -30 30 -64 32
-99 4z"/>
<path d="M989 1151 c-23 -19 -24 -25 -27 -186 -4 -182 3 -215 44 -234 35 -16
48 -14 78 10 l26 20 0 183 c0 178 -1 183 -23 204 -29 27 -67 28 -98 3z"/>
<path d="M545 595 c-58 -20 -121 -93 -134 -154 -21 -99 30 -198 124 -242 71
-33 155 -20 221 34 98 81 98 243 0 324 -63 51 -136 65 -211 38z m112 -157 c23
-30 23 -49 -1 -60 -33 -14 -96 -2 -96 19 0 42 73 72 97 41z"/>
<path d="M1036 595 c-149 -53 -184 -256 -62 -363 134 -117 347 -19 346 160 -1
153 -142 254 -284 203z"/>
</g>
</svg>
